<svg width="38" height="15" viewBox="0 0 38 15" fill="none" xmlns="http://www.w3.org/2000/svg">
<path d="M35 7.5L36.0607 6.43934L37.1213 7.5L36.0607 8.56066L35 7.5ZM1.97058 9C1.14215 9 0.470581 8.32843 0.470581 7.5C0.470581 6.67157 1.14215 6 1.97058 6V9ZM30.0607 0.43934L36.0607 6.43934L33.9393 8.56066L27.9393 2.56066L30.0607 0.43934ZM36.0607 8.56066L30.0607 14.5607L27.9393 12.4393L33.9393 6.43934L36.0607 8.56066ZM35 9H18.4853V6H35V9ZM18.4853 9H10.2279V6H18.4853V9ZM10.2279 9H1.97058V6H10.2279V9Z" fill="#6C63FF"/>
</svg>
